<svg width="263" height="196" viewBox="0 0 263 196" fill="none" xmlns="http://www.w3.org/2000/svg">
<path d="M262.824 172.149H0V172.28H262.824V172.149Z" fill="#EBEBEB"/>
<path d="M44.9849 177.153H27.5754V177.284H44.9849V177.153Z" fill="#EBEBEB"/>
<path d="M114.534 175.728H89.9595V175.86H114.534V175.728Z" fill="#EBEBEB"/>
<path d="M69.3802 181.216H59.293V181.348H69.3802V181.216Z" fill="#EBEBEB"/>
<path d="M180.056 178.935H164.176V179.066H180.056V178.935Z" fill="#EBEBEB"/>
<path d="M194.889 178.935H184.734V179.066H194.889V178.935Z" fill="#EBEBEB"/>
<path d="M236.494 181.153H205.712V181.284H236.494V181.153Z" fill="#EBEBEB"/>
<path d="M124.579 148.705H23.0812C22.286 148.703 21.524 148.387 20.9622 147.824C20.4005 147.261 20.085 146.499 20.085 145.703V3.02677C20.0919 2.23621 20.4104 1.48031 20.9714 0.923244C21.5324 0.366184 22.2906 0.0529595 23.0812 0.0516052H124.579C125.375 0.0516052 126.138 0.367829 126.701 0.93071C127.264 1.49359 127.58 2.25702 127.58 3.05305V145.703C127.58 146.499 127.264 147.263 126.701 147.826C126.138 148.389 125.375 148.705 124.579 148.705ZM23.0812 0.156735C22.3209 0.158128 21.5922 0.461119 21.0551 0.999205C20.518 1.53729 20.2164 2.2665 20.2164 3.02677V145.703C20.2164 146.464 20.518 147.193 21.0551 147.731C21.5922 148.269 22.3209 148.572 23.0812 148.573H124.579C125.339 148.572 126.068 148.269 126.606 147.731C127.144 147.193 127.447 146.464 127.449 145.703V3.02677C127.447 2.26602 127.144 1.53682 126.606 0.998884C126.068 0.460948 125.339 0.158125 124.579 0.156735H23.0812Z" fill="#EBEBEB"/>
<path d="M238.281 148.705H136.779C135.983 148.703 135.221 148.387 134.658 147.824C134.095 147.262 133.779 146.499 133.777 145.703V3.02677C133.786 2.23573 134.105 1.47983 134.667 0.922915C135.229 0.366 135.988 0.0529447 136.779 0.0516052H238.281C239.071 0.054341 239.828 0.368176 240.388 0.925089C240.948 1.482 241.265 2.23712 241.272 3.02677V145.703C241.272 146.498 240.958 147.259 240.397 147.822C239.836 148.385 239.076 148.702 238.281 148.705ZM136.779 0.156735C136.018 0.158125 135.289 0.460948 134.751 0.998884C134.213 1.53682 133.91 2.26602 133.909 3.02677V145.703C133.91 146.464 134.213 147.193 134.751 147.731C135.289 148.269 136.018 148.572 136.779 148.573H238.281C239.042 148.572 239.771 148.269 240.309 147.731C240.847 147.193 241.15 146.464 241.151 145.703V3.02677C241.15 2.26602 240.847 1.53682 240.309 0.998884C239.771 0.460948 239.042 0.158125 238.281 0.156735H136.779Z" fill="#EBEBEB"/>
<path d="M47.0505 100.04L172.118 100.04V21.7766L47.0505 21.7766L47.0505 100.04Z" fill="#F0F0F0"/>
<path d="M169.669 96.3608V25.4562L49.4951 25.4562V96.3608L169.669 96.3608Z" fill="#FAFAFA"/>
<path d="M153.852 96.3608L141.52 25.4562H132.432L144.758 96.3608H153.852Z" fill="white"/>
<path d="M142.661 96.3608L130.334 25.4562H126.271L138.598 96.3608H142.661Z" fill="white"/>
<path d="M122.77 96.3608L110.444 25.4562H101.355L113.682 96.3608H122.77Z" fill="white"/>
<path d="M99.8571 96.3608L87.5254 25.4562H83.4622L95.7886 96.3608H99.8571Z" fill="white"/>
<path d="M138.093 96.3608V25.4562H137.473V96.3608H138.093Z" fill="#E0E0E0"/>
<path d="M169.669 96.3661V25.4614H169.048V96.3661H169.669Z" fill="#E0E0E0"/>
<path d="M140.542 96.3608V25.4562H138.093V96.3608H140.542Z" fill="#F0F0F0"/>
<path d="M107.758 96.3608V25.4562H107.138V96.3608H107.758Z" fill="#E0E0E0"/>
<path d="M110.202 96.3608V25.4562H107.753V96.3608H110.202Z" fill="#F0F0F0"/>
<path d="M77.4016 96.3608V25.4562H76.7814V96.3608H77.4016Z" fill="#E0E0E0"/>
<path d="M79.8513 96.3661V25.4614H77.4018V96.3661H79.8513Z" fill="#F0F0F0"/>
<path d="M47.0454 100.04L47.0454 21.7766H46.4251L46.4251 100.04H47.0454Z" fill="#E0E0E0"/>
<path d="M34.3406 16.4045H177.669C177.886 16.4045 178.093 16.3188 178.247 16.1662C178.401 16.0136 178.488 15.8063 178.489 15.5898C178.489 15.3723 178.403 15.1637 178.249 15.0099C178.095 14.8561 177.887 14.7697 177.669 14.7697H34.3406C34.1241 14.7711 33.9168 14.8581 33.7642 15.0118C33.6115 15.1654 33.5259 15.3732 33.5259 15.5898C33.5273 15.8054 33.6135 16.0119 33.766 16.1644C33.9185 16.3169 34.125 16.4031 34.3406 16.4045Z" fill="#E0E0E0"/>
<g opacity="0.6">
<path d="M121.283 155.996H175.667L175.667 13.1928H121.283L121.283 155.996Z" fill="#F5F5F5"/>
<path d="M154.351 157.163H158.909L157.631 14.3597H155.592L154.351 157.163Z" fill="#E6E6E6"/>
<path d="M164.407 157.163H166.609L165.989 14.3597H165.006L164.407 157.163Z" fill="#E6E6E6"/>
<path d="M141.137 157.163H143.334L142.719 14.3597H141.736L141.137 157.163Z" fill="#E6E6E6"/>
<path d="M129.94 157.163H132.137L131.522 14.3597H130.539L129.94 157.163Z" fill="#E6E6E6"/>
</g>
<g opacity="0.6">
<path d="M37.1476 155.996H64.3394L64.3394 13.1928H37.1476L37.1476 155.996Z" fill="#F5F5F5"/>
<path d="M53.6846 157.163H55.9606L55.3246 14.3597H54.3048L53.6846 157.163Z" fill="#E6E6E6"/>
<path d="M58.7097 157.163H59.8083L59.5034 14.3597H59.0093L58.7097 157.163Z" fill="#E6E6E6"/>
<path d="M47.0771 157.163H48.1758L47.8656 14.3597H47.3768L47.0771 157.163Z" fill="#E6E6E6"/>
<path d="M41.479 157.163H42.5776L42.2675 14.3597H41.7734L41.479 157.163Z" fill="#E6E6E6"/>
</g>
<path d="M225.887 35.27H189.812V80.297H225.887V35.27Z" fill="#E6E6E6"/>
<path d="M227.474 35.27H190.353V80.297H227.474V35.27Z" fill="#F5F5F5"/>
<path d="M224.63 77.1011V38.4659H193.202V77.1011H224.63Z" fill="#FAFAFA"/>
<path d="M224.63 77.1011V38.4659H224.336V77.1011H224.63Z" fill="#E6E6E6"/>
<path d="M219.312 55.2448C221.086 53.4712 221.086 50.5956 219.312 48.822C217.538 47.0484 214.663 47.0484 212.889 48.822C211.116 50.5956 211.116 53.4712 212.889 55.2448C214.663 57.0184 217.538 57.0184 219.312 55.2448Z" fill="#F0F0F0"/>
<path d="M215.373 65.3723C218.977 61.7676 218.977 55.9232 215.373 52.3186C211.768 48.7139 205.924 48.7139 202.319 52.3186C198.714 55.9232 198.714 61.7676 202.319 65.3723C205.924 68.977 211.768 68.977 215.373 65.3723Z" fill="white"/>
<path d="M206.445 53.0698C207.021 50.6286 205.509 48.1826 203.068 47.6064C200.627 47.0302 198.18 48.5421 197.604 50.9833C197.028 53.4245 198.54 55.8706 200.981 56.4467C203.422 57.0229 205.868 55.511 206.445 53.0698Z" fill="#F0F0F0"/>
<path d="M188.739 118.512H183.809V168.774H188.739V118.512Z" fill="#F0F0F0"/>
<path d="M235.08 115.505H182.61V118.512H235.08V115.505Z" fill="#F0F0F0"/>
<path d="M231.868 168.774H185.816V172.149H231.868V168.774Z" fill="#F0F0F0"/>
<path d="M233.882 118.512H188.739V168.774H233.882V118.512Z" fill="#FAFAFA"/>
<path d="M192.85 139.532H229.766V124.11H192.85V139.532Z" fill="#F0F0F0"/>
<path d="M192.85 162.214H229.766V146.791H192.85V162.214Z" fill="#F0F0F0"/>
<path d="M215.516 123.2H207.1C206.572 123.2 206.143 123.629 206.143 124.157V124.641C206.143 125.169 206.572 125.597 207.1 125.597H215.516C216.044 125.597 216.472 125.169 216.472 124.641V124.157C216.472 123.629 216.044 123.2 215.516 123.2Z" fill="#FAFAFA"/>
<path d="M215.516 145.887H207.1C206.572 145.887 206.143 146.316 206.143 146.844V147.328C206.143 147.856 206.572 148.284 207.1 148.284H215.516C216.044 148.284 216.472 147.856 216.472 147.328V146.844C216.472 146.316 216.044 145.887 215.516 145.887Z" fill="#FAFAFA"/>
<path d="M100.698 171.997C106.877 170.994 111.072 165.173 110.069 158.994C109.066 152.816 103.245 148.621 97.0667 149.624C90.8885 150.627 86.6931 156.448 87.696 162.626C88.6988 168.804 94.5202 173 100.698 171.997Z" fill="#EBEBEB"/>
<path d="M83.7399 171.964C91.4511 170.712 96.6876 163.446 95.4359 155.735C94.1842 148.023 86.9183 142.787 79.2071 144.039C71.4958 145.29 66.2593 152.556 67.5111 160.268C68.7628 167.979 76.0287 173.215 83.7399 171.964Z" fill="#F5F5F5"/>
<path d="M131.412 195.887C187.7 195.887 233.33 193.223 233.33 189.937C233.33 186.65 187.7 183.986 131.412 183.986C75.1243 183.986 29.4941 186.65 29.4941 189.937C29.4941 193.223 75.1243 195.887 131.412 195.887Z" fill="#F5F5F5"/>
<path d="M66.5522 74.9775C63.0776 74.9775 61.4429 71.4819 61.3745 71.3347C61.315 71.1711 61.3192 70.9911 61.3863 70.8304C61.4534 70.6697 61.5784 70.5401 61.7365 70.4673C61.8947 70.3946 62.0744 70.3839 62.2401 70.4374C62.4057 70.491 62.5452 70.6049 62.6308 70.7565C62.6308 70.8038 64.0133 73.6686 66.6573 73.595C66.8311 73.6048 66.9948 73.6796 67.1161 73.8045C67.2373 73.9294 67.3072 74.0953 67.3118 74.2693C67.3165 74.4433 67.2555 74.6127 67.1411 74.7439C67.0267 74.8751 66.8671 74.9584 66.6941 74.9775H66.5522Z" fill="#407BFF"/>
<path d="M111.963 26.4339C111.661 26.4352 111.359 26.4159 111.059 26.3761C110.969 26.3626 110.883 26.3316 110.805 26.2848C110.727 26.238 110.66 26.1764 110.606 26.1034C110.552 26.0305 110.513 25.9476 110.491 25.8595C110.469 25.7715 110.465 25.68 110.478 25.5902C110.492 25.5005 110.523 25.4143 110.569 25.3365C110.616 25.2588 110.678 25.191 110.751 25.137C110.824 25.0831 110.907 25.0441 110.995 25.0222C111.083 25.0003 111.174 24.9959 111.264 25.0094C111.295 25.0094 114.46 25.4562 115.848 23.2011C115.895 23.1238 115.957 23.0566 116.03 23.0033C116.103 22.9499 116.187 22.9115 116.275 22.8903C116.363 22.8691 116.454 22.8654 116.544 22.8795C116.633 22.8936 116.719 22.9252 116.796 22.9725C116.874 23.0198 116.941 23.0818 116.994 23.1551C117.048 23.2284 117.086 23.3114 117.107 23.3995C117.128 23.4876 117.132 23.5791 117.118 23.6686C117.104 23.7581 117.072 23.844 117.025 23.9213C115.643 26.108 113.251 26.4339 111.963 26.4339Z" fill="#407BFF"/>
<path opacity="0.6" d="M111.963 26.4339C111.661 26.4352 111.359 26.4159 111.059 26.3761C110.969 26.3626 110.883 26.3316 110.805 26.2848C110.727 26.238 110.66 26.1764 110.606 26.1034C110.552 26.0305 110.513 25.9476 110.491 25.8595C110.469 25.7715 110.465 25.68 110.478 25.5902C110.492 25.5005 110.523 25.4143 110.569 25.3365C110.616 25.2588 110.678 25.191 110.751 25.137C110.824 25.0831 110.907 25.0441 110.995 25.0222C111.083 25.0003 111.174 24.9959 111.264 25.0094C111.295 25.0094 114.46 25.4562 115.848 23.2011C115.895 23.1238 115.957 23.0566 116.03 23.0033C116.103 22.9499 116.187 22.9115 116.275 22.8903C116.363 22.8691 116.454 22.8654 116.544 22.8795C116.633 22.8936 116.719 22.9252 116.796 22.9725C116.874 23.0198 116.941 23.0818 116.994 23.1551C117.048 23.2284 117.086 23.3114 117.107 23.3995C117.128 23.4876 117.132 23.5791 117.118 23.6686C117.104 23.7581 117.072 23.844 117.025 23.9213C115.643 26.108 113.251 26.4339 111.963 26.4339Z" fill="white"/>
<path d="M33.9567 52.7583C32.623 52.7129 31.3279 52.3 30.2141 51.5651C30.1355 51.5148 30.068 51.449 30.0156 51.3717C29.9632 51.2945 29.9271 51.2074 29.9094 51.1157C29.8918 51.0241 29.8929 50.9298 29.9128 50.8387C29.9326 50.7475 29.9708 50.6613 30.0251 50.5853C30.0793 50.5094 30.1484 50.4452 30.2281 50.3968C30.3079 50.3483 30.3967 50.3166 30.4891 50.3035C30.5815 50.2904 30.6756 50.2963 30.7656 50.3207C30.8557 50.3451 30.9399 50.3875 31.013 50.4455C31.0393 50.4455 33.6886 52.2379 35.9226 50.8134C35.9991 50.7578 36.0862 50.7184 36.1785 50.6976C36.2708 50.6769 36.3664 50.6752 36.4593 50.6928C36.5523 50.7103 36.6407 50.7467 36.7191 50.7996C36.7975 50.8526 36.8642 50.921 36.9152 51.0007C36.9662 51.0804 37.0003 51.1697 37.0155 51.2631C37.0307 51.3564 37.0267 51.4519 37.0036 51.5437C36.9805 51.6354 36.939 51.7215 36.8814 51.7966C36.8239 51.8717 36.7516 51.9342 36.669 51.9804C35.8592 52.4967 34.917 52.7669 33.9567 52.7583Z" fill="#407BFF"/>
<path opacity="0.6" d="M33.9567 52.7583C32.623 52.7129 31.3279 52.3 30.2141 51.5651C30.1355 51.5148 30.068 51.449 30.0156 51.3717C29.9632 51.2945 29.9271 51.2074 29.9094 51.1157C29.8918 51.0241 29.8929 50.9298 29.9128 50.8387C29.9326 50.7475 29.9708 50.6613 30.0251 50.5853C30.0793 50.5094 30.1484 50.4452 30.2281 50.3968C30.3079 50.3483 30.3967 50.3166 30.4891 50.3035C30.5815 50.2904 30.6756 50.2963 30.7656 50.3207C30.8557 50.3451 30.9399 50.3875 31.013 50.4455C31.0393 50.4455 33.6886 52.2379 35.9226 50.8134C35.9991 50.7578 36.0862 50.7184 36.1785 50.6976C36.2708 50.6769 36.3664 50.6752 36.4593 50.6928C36.5523 50.7103 36.6407 50.7467 36.7191 50.7996C36.7975 50.8526 36.8642 50.921 36.9152 51.0007C36.9662 51.0804 37.0003 51.1697 37.0155 51.2631C37.0307 51.3564 37.0267 51.4519 37.0036 51.5437C36.9805 51.6354 36.939 51.7215 36.8814 51.7966C36.8239 51.8717 36.7516 51.9342 36.669 51.9804C35.8592 52.4967 34.917 52.7669 33.9567 52.7583Z" fill="white"/>
<path d="M214.27 34.3238C212.938 34.288 211.642 33.888 210.522 33.1674C210.371 33.0636 210.268 32.9041 210.235 32.7242C210.202 32.5443 210.242 32.3587 210.346 32.2081C210.449 32.0575 210.609 31.9544 210.789 31.9214C210.969 31.8884 211.154 31.9282 211.305 32.032C211.331 32.032 213.986 33.8192 216.22 32.4C216.296 32.3513 216.381 32.3181 216.47 32.3024C216.559 32.2866 216.651 32.2885 216.739 32.3081C216.827 32.3276 216.911 32.3643 216.985 32.4162C217.059 32.468 217.122 32.534 217.171 32.6102C217.22 32.6865 217.253 32.7716 217.269 32.8607C217.285 32.9498 217.283 33.0411 217.263 33.1295C217.244 33.2178 217.207 33.3015 217.155 33.3756C217.103 33.4498 217.037 33.513 216.961 33.5617C216.157 34.0713 215.222 34.3361 214.27 34.3238Z" fill="#407BFF"/>
<path opacity="0.6" d="M214.27 34.3238C212.938 34.288 211.642 33.888 210.522 33.1674C210.371 33.0636 210.268 32.9041 210.235 32.7242C210.202 32.5443 210.242 32.3587 210.346 32.2081C210.449 32.0575 210.609 31.9544 210.789 31.9214C210.969 31.8884 211.154 31.9282 211.305 32.032C211.331 32.032 213.986 33.8192 216.22 32.4C216.296 32.3513 216.381 32.3181 216.47 32.3024C216.559 32.2866 216.651 32.2885 216.739 32.3081C216.827 32.3276 216.911 32.3643 216.985 32.4162C217.059 32.468 217.122 32.534 217.171 32.6102C217.22 32.6865 217.253 32.7716 217.269 32.8607C217.285 32.9498 217.283 33.0411 217.263 33.1295C217.244 33.2178 217.207 33.3015 217.155 33.3756C217.103 33.4498 217.037 33.513 216.961 33.5617C216.157 34.0713 215.222 34.3361 214.27 34.3238Z" fill="white"/>
<path d="M129.735 88.618C126.513 88.618 124.757 85.4957 124.678 85.3538C124.59 85.1934 124.569 85.0045 124.619 84.8285C124.67 84.6526 124.789 84.504 124.949 84.4155C125.109 84.3269 125.298 84.3057 125.474 84.3565C125.65 84.4073 125.799 84.5259 125.887 84.6862C125.887 84.7282 127.464 87.4826 130.092 87.2146C130.268 87.2085 130.44 87.2693 130.572 87.3849C130.705 87.5004 130.789 87.6619 130.807 87.8369C130.825 88.0118 130.776 88.187 130.669 88.3271C130.563 88.4673 130.408 88.5619 130.234 88.5917C130.077 88.6075 129.903 88.618 129.735 88.618Z" fill="#407BFF"/>
<path opacity="0.6" d="M129.735 88.618C126.513 88.618 124.757 85.4957 124.678 85.3538C124.59 85.1934 124.569 85.0045 124.619 84.8285C124.67 84.6526 124.789 84.504 124.949 84.4155C125.109 84.3269 125.298 84.3057 125.474 84.3565C125.65 84.4073 125.799 84.5259 125.887 84.6862C125.887 84.7282 127.464 87.4826 130.092 87.2146C130.268 87.2085 130.44 87.2693 130.572 87.3849C130.705 87.5004 130.789 87.6619 130.807 87.8369C130.825 88.0118 130.776 88.187 130.669 88.3271C130.563 88.4673 130.408 88.5619 130.234 88.5917C130.077 88.6075 129.903 88.618 129.735 88.618Z" fill="white"/>
<path d="M41.5263 102.658C41.3589 102.657 41.1977 102.594 41.073 102.483C40.9482 102.371 40.8684 102.218 40.8484 102.052C40.8285 101.885 40.8697 101.718 40.9645 101.58C41.0593 101.442 41.201 101.343 41.3633 101.302C41.3949 101.302 44.4804 100.487 44.9009 97.8694C44.9154 97.78 44.9474 97.6944 44.995 97.6173C45.0426 97.5403 45.1049 97.4734 45.1784 97.4204C45.2518 97.3675 45.335 97.3295 45.4231 97.3087C45.5113 97.2879 45.6027 97.2846 45.6921 97.2991C45.7814 97.3136 45.8671 97.3456 45.9441 97.3932C46.0212 97.4408 46.0881 97.5031 46.1411 97.5765C46.194 97.65 46.232 97.7332 46.2528 97.8213C46.2736 97.9094 46.2769 98.0008 46.2624 98.0902C45.6999 101.617 41.8574 102.6 41.6945 102.642C41.639 102.653 41.5827 102.658 41.5263 102.658Z" fill="#407BFF"/>
<path opacity="0.6" d="M41.5263 102.658C41.3589 102.657 41.1977 102.594 41.073 102.483C40.9482 102.371 40.8684 102.218 40.8484 102.052C40.8285 101.885 40.8697 101.718 40.9645 101.58C41.0593 101.442 41.201 101.343 41.3633 101.302C41.3949 101.302 44.4804 100.487 44.9009 97.8694C44.9154 97.78 44.9474 97.6944 44.995 97.6173C45.0426 97.5403 45.1049 97.4734 45.1784 97.4204C45.2518 97.3675 45.335 97.3295 45.4231 97.3087C45.5113 97.2879 45.6027 97.2846 45.6921 97.2991C45.7814 97.3136 45.8671 97.3456 45.9441 97.3932C46.0212 97.4408 46.0881 97.5031 46.1411 97.5765C46.194 97.65 46.232 97.7332 46.2528 97.8213C46.2736 97.9094 46.2769 98.0008 46.2624 98.0902C45.6999 101.617 41.8574 102.6 41.6945 102.642C41.639 102.653 41.5827 102.658 41.5263 102.658Z" fill="black"/>
<path d="M195.015 54.7453C194.843 54.7511 194.675 54.6924 194.544 54.5807C194.414 54.469 194.329 54.3123 194.308 54.1415C194.287 53.9707 194.331 53.7983 194.43 53.658C194.53 53.5178 194.679 53.42 194.847 53.3838C194.878 53.3838 197.964 52.5743 198.385 49.9566C198.393 49.8619 198.421 49.7699 198.467 49.6864C198.513 49.603 198.575 49.5298 198.65 49.4715C198.725 49.4132 198.812 49.3709 198.904 49.3474C198.996 49.3239 199.092 49.3196 199.186 49.3347C199.28 49.3499 199.37 49.3843 199.45 49.4356C199.53 49.487 199.599 49.5543 199.652 49.6333C199.705 49.7123 199.741 49.8014 199.758 49.895C199.775 49.9886 199.773 50.0847 199.751 50.1774C199.184 53.7045 195.341 54.6874 195.178 54.7242C195.125 54.739 195.07 54.746 195.015 54.7453Z" fill="#407BFF"/>
<path opacity="0.6" d="M195.015 54.7453C194.843 54.7511 194.675 54.6924 194.544 54.5807C194.414 54.469 194.329 54.3123 194.308 54.1415C194.287 53.9707 194.331 53.7983 194.43 53.658C194.53 53.5178 194.679 53.42 194.847 53.3838C194.878 53.3838 197.964 52.5743 198.385 49.9566C198.393 49.8619 198.421 49.7699 198.467 49.6864C198.513 49.603 198.575 49.5298 198.65 49.4715C198.725 49.4132 198.812 49.3709 198.904 49.3474C198.996 49.3239 199.092 49.3196 199.186 49.3347C199.28 49.3499 199.37 49.3843 199.45 49.4356C199.53 49.487 199.599 49.5543 199.652 49.6333C199.705 49.7123 199.741 49.8014 199.758 49.895C199.775 49.9886 199.773 50.0847 199.751 50.1774C199.184 53.7045 195.341 54.6874 195.178 54.7242C195.125 54.739 195.07 54.746 195.015 54.7453Z" fill="black"/>
<path d="M223.258 80.9541H223.142C222.974 80.9225 219.074 80.2077 218.27 76.7489C218.249 76.6598 218.246 76.5674 218.261 76.4772C218.276 76.3869 218.309 76.3006 218.358 76.2233C218.407 76.146 218.471 76.0792 218.546 76.0268C218.621 75.9745 218.706 75.9376 218.795 75.9184C218.884 75.8982 218.977 75.8958 219.067 75.9113C219.157 75.9268 219.243 75.9599 219.32 76.0088C219.397 76.0576 219.464 76.1212 219.516 76.1959C219.569 76.2706 219.606 76.3549 219.626 76.444C220.225 79.0197 223.358 79.5979 223.389 79.5979C223.555 79.6333 223.702 79.728 223.803 79.8642C223.903 80.0004 223.95 80.1687 223.936 80.3373C223.921 80.506 223.845 80.6634 223.722 80.7799C223.599 80.8964 223.438 80.9639 223.269 80.9698L223.258 80.9541Z" fill="#407BFF"/>
<path d="M210.937 106.296C209.733 106.314 208.563 105.902 207.636 105.134C207.559 105.079 207.494 105.008 207.445 104.927C207.396 104.845 207.365 104.754 207.353 104.66C207.341 104.566 207.349 104.47 207.376 104.379C207.403 104.288 207.448 104.203 207.509 104.131C207.57 104.058 207.646 103.999 207.731 103.957C207.816 103.914 207.909 103.89 208.004 103.886C208.098 103.881 208.193 103.896 208.282 103.93C208.371 103.964 208.451 104.016 208.519 104.083C210.553 105.775 213.408 104.356 213.439 104.34C213.602 104.257 213.792 104.241 213.966 104.297C214.141 104.353 214.286 104.477 214.37 104.64C214.453 104.803 214.469 104.993 214.412 105.167C214.356 105.342 214.233 105.487 214.07 105.57C213.09 106.036 212.022 106.284 210.937 106.296Z" fill="#407BFF"/>
<path d="M178.72 20.0262C178.6 20.0271 178.483 19.9963 178.379 19.9369C178.237 19.858 174.804 17.8711 175.225 14.3229C175.246 14.141 175.338 13.9748 175.481 13.861C175.625 13.7471 175.808 13.6949 175.989 13.7158C176.171 13.7367 176.338 13.8291 176.451 13.9725C176.565 14.1159 176.617 14.2987 176.597 14.4806C176.297 17.1089 179.051 18.7226 179.078 18.7384C179.211 18.814 179.316 18.9323 179.375 19.0743C179.434 19.2163 179.443 19.3739 179.402 19.522C179.361 19.6702 179.272 19.8003 179.148 19.8916C179.025 19.983 178.874 20.0304 178.72 20.0262Z" fill="#407BFF"/>
<path d="M41.4159 22.8279C41.3254 22.8317 41.2352 22.8177 41.1502 22.7866C41.0652 22.7555 40.9871 22.7079 40.9205 22.6467C40.8539 22.5854 40.8 22.5116 40.7618 22.4296C40.7237 22.3475 40.7022 22.2587 40.6984 22.1682C40.6946 22.0778 40.7086 21.9875 40.7397 21.9025C40.7708 21.8175 40.8183 21.7395 40.8796 21.6729C40.9409 21.6062 41.0146 21.5523 41.0967 21.5142C41.1788 21.4761 41.2676 21.4545 41.358 21.4507C43.9863 21.2194 45.0376 18.2022 45.0376 18.1707C45.0986 18.0029 45.2224 17.8655 45.3829 17.7872C45.5434 17.709 45.7279 17.6962 45.8977 17.7514C46.0674 17.8066 46.2091 17.9256 46.2928 18.0832C46.3765 18.2409 46.3958 18.4249 46.3464 18.5965C46.2991 18.7594 45.0376 22.5178 41.4789 22.8016L41.4159 22.8279Z" fill="#407BFF"/>
<path d="M92.7033 43.6278C90.8372 44.5004 89.192 48.6951 89.7281 54.719C90.2643 60.7429 77.7854 56.5167 76.0876 63.266C73.023 75.4821 93.5706 82.8254 102.328 75.4821C107.747 70.9405 112.841 55.97 112.094 47.8015C111.295 39.0179 97.6707 33.1254 92.7033 43.6278Z" fill="#263238"/>
<path d="M112.42 59.0398C112.652 58.9715 112.988 58.8716 113.277 58.777L114.181 58.4721C114.786 58.2619 115.385 58.0306 115.979 57.7835C117.162 57.2977 118.317 56.7449 119.438 56.1277C121.634 54.9561 123.61 53.4123 125.278 51.5651C126.765 49.7989 127.832 47.3915 128.668 44.9209C129.094 43.6804 129.451 42.4031 129.756 41.1047C130.061 39.8064 130.35 38.4765 130.571 37.1991L132.716 37.3306C132.719 40.1732 132.411 43.0076 131.796 45.783C131.483 47.2051 131.059 48.6006 130.529 49.9566C129.979 51.388 129.242 52.7402 128.337 53.9778C126.486 56.3517 124.19 58.3424 121.577 59.8388C120.318 60.5829 119.012 61.2431 117.666 61.8152C116.994 62.0991 116.315 62.3409 115.622 62.5985C115.28 62.7194 114.933 62.835 114.57 62.9401C114.208 63.0453 113.887 63.1451 113.456 63.2503L112.42 59.0398Z" fill="#7F3E3B"/>
<path d="M132.705 38.0507L133.599 34.839L130.051 35.1123C130.051 35.1123 129.798 37.2149 131.023 38.4817L132.705 38.0507Z" fill="#7F3E3B"/>
<path d="M134.13 31.1016L130.892 31.9479L130.051 35.1123L133.599 34.839L134.13 31.1016Z" fill="#7F3E3B"/>
<path d="M108.405 59.8598C110.039 58.3722 114.187 57.2316 114.187 57.2316L118.734 64.065C118.734 64.065 113.546 67.529 111.343 66.7248C109.051 65.9258 106.88 61.2423 108.405 59.8598Z" fill="#407BFF"/>
<path d="M93.429 157.057L96.2622 160.169L104.394 154.377L101.561 151.265L93.429 157.057Z" fill="#7F3E3B"/>
<path d="M77.4387 169.352L81.2392 171.239L86.8268 163.045L83.0264 161.157L77.4387 169.352Z" fill="#7F3E3B"/>
<path d="M81.8433 170.772L78.9102 167.013C78.8608 166.948 78.7893 166.902 78.7089 166.886C78.6286 166.869 78.545 166.883 78.4739 166.924L75.1676 168.816C75.0857 168.866 75.0155 168.933 74.9613 169.012C74.9072 169.091 74.8705 169.181 74.8536 169.275C74.8367 169.37 74.84 169.467 74.8634 169.56C74.8867 169.653 74.9294 169.74 74.9888 169.815C76.0401 171.108 76.6026 171.681 77.8957 173.337C78.6841 174.351 80.2926 176.717 81.386 178.12C82.4793 179.524 83.9301 178.52 83.5989 177.836C82.1166 174.772 82.022 172.953 82.0746 171.492C82.0851 171.232 82.0032 170.977 81.8433 170.772Z" fill="#263238"/>
<path d="M97.1084 160.227L95.174 155.58C95.1399 155.497 95.0789 155.428 95.0009 155.383C94.9228 155.338 94.8321 155.321 94.743 155.333L90.6429 155.859C90.5454 155.869 90.4516 155.903 90.3695 155.956C90.2873 156.01 90.219 156.082 90.1703 156.168C90.1216 156.253 90.0937 156.348 90.0891 156.446C90.0844 156.544 90.1031 156.642 90.1436 156.731C90.848 158.345 91.2737 159.097 92.1253 161.142C92.6509 162.398 93.8704 165.699 94.5906 167.449C95.3107 169.2 97.161 168.785 97.0243 168.017C96.4093 164.579 96.6196 162.361 97.1294 161.01C97.1777 160.885 97.2008 160.751 97.1972 160.617C97.1935 160.482 97.1634 160.35 97.1084 160.227Z" fill="#263238"/>
<path opacity="0.2" d="M104.388 154.377L100.199 157.362L97.0293 154.492L101.555 151.265L104.388 154.377Z" fill="black"/>
<path opacity="0.2" d="M83.0262 161.157L86.8266 163.045L83.9408 167.271L80.1404 165.378L83.0262 161.157Z" fill="black"/>
<path d="M114.129 60.3907C114.129 60.3907 114.255 60.2015 111.953 85.317L94.7641 86.5207C94.5643 79.5085 95.09 74.5569 91.8152 60.1489C94.2302 59.6626 96.6774 59.3534 99.1375 59.2238C101.742 59.05 104.356 59.0641 106.959 59.2658C110.318 59.5865 114.129 60.3907 114.129 60.3907Z" fill="#407BFF"/>
<path d="M93.1081 64.3121C91.8308 63.7233 90.7112 63.0926 89.5495 62.425C88.3878 61.7574 87.2892 61.0425 86.1958 60.2856C83.9704 58.7748 81.9014 57.0456 80.0195 55.1237L79.3256 54.3721L79.1469 54.1828C79.0444 54.0651 78.948 53.9423 78.8578 53.8149C78.6952 53.5831 78.5545 53.3367 78.4373 53.079C78.0892 52.2576 77.9105 51.3744 77.9116 50.4823C77.9233 49.0622 78.1141 47.6494 78.4793 46.2771C79.1466 43.7088 80.073 41.215 81.2442 38.8339L83.2522 39.6119C82.9421 40.8051 82.6477 42.0456 82.3849 43.2599C82.1221 44.4741 81.9013 45.6989 81.7541 46.8973C81.5835 48.0243 81.5376 49.1666 81.6174 50.3036C81.6437 50.6971 81.7436 51.0822 81.9118 51.4389C81.9118 51.4757 81.9644 51.5178 81.9801 51.5231C81.9959 51.5283 81.9801 51.5231 81.9801 51.5231L82.1431 51.6755L82.7896 52.2905C84.594 53.9246 86.5277 55.4101 88.5718 56.7322C89.5968 57.4103 90.6744 58.0306 91.7257 58.6561C92.7769 59.2816 93.9071 59.8756 94.9321 60.396L93.1081 64.3121Z" fill="#7F3E3B"/>
<path d="M98.5803 61.1109C96.6302 58.3933 92.7982 58.4353 92.7982 58.4353L88.1777 65.2687C88.1777 65.2687 93.3343 68.7801 95.5368 67.9968C97.8707 67.1663 99.784 62.7824 98.5803 61.1109Z" fill="#407BFF"/>
<path d="M106.959 59.2658L99.1374 59.2238C97.9389 59.7074 97.2451 62.8245 105.182 65.4632C110.686 62.3356 107.758 59.5549 106.959 59.2658Z" fill="white"/>
<path d="M99.9575 50.4192C100.436 52.937 100.904 57.5522 99.1375 59.2238C99.1375 59.2238 99.8208 61.7837 105.182 65.4632C108.941 61.6943 106.959 59.2658 106.959 59.2658C104.157 58.5772 104.241 56.4957 104.741 54.535L99.9575 50.4192Z" fill="#7F3E3B"/>
<path d="M116.168 75.419H116.084C115.807 75.3962 115.55 75.2645 115.37 75.0526C115.189 74.8408 115.1 74.5662 115.122 74.2889C115.311 71.9445 113.545 70.173 111.516 68.1177C109.188 65.7681 106.544 63.1031 106.439 58.9557C106.432 58.6769 106.536 58.4067 106.728 58.2046C106.92 58.0025 107.185 57.8851 107.464 57.8781C107.742 57.8712 108.013 57.9752 108.215 58.1675C108.417 58.3597 108.534 58.6243 108.541 58.9031C108.625 62.2147 110.854 64.4645 113.009 66.6407C115.164 68.8169 117.482 71.1507 117.214 74.4571C117.192 74.7192 117.072 74.9634 116.878 75.1415C116.685 75.3196 116.431 75.4186 116.168 75.419Z" fill="#263238"/>
<path d="M100.804 80.7386C100.719 80.7383 100.634 80.7277 100.551 80.707C100.281 80.6399 100.048 80.4683 99.9044 80.2298C99.7605 79.9912 99.7171 79.7054 99.7838 79.4349C100.798 75.3139 99.4684 72.0759 98.0597 68.6697C96.7981 65.6104 95.4945 62.446 96.1253 58.7454C96.1798 58.4775 96.3365 58.2413 96.5622 58.087C96.7879 57.9326 97.0649 57.8723 97.3343 57.9188C97.6038 57.9653 97.8445 58.115 98.0055 58.336C98.1664 58.5571 98.2349 58.8322 98.1964 59.1029C97.6707 62.2042 98.8009 64.9586 99.9993 67.8707C101.408 71.2821 103.001 75.1509 101.823 79.9606C101.763 80.1846 101.63 80.3824 101.446 80.5231C101.261 80.6638 101.036 80.7396 100.804 80.7386Z" fill="#263238"/>
<path opacity="0.2" d="M103.752 53.6677L101.65 53.9147C101.752 54.4808 101.955 55.0239 102.249 55.518C102.664 56.1435 103.59 56.4168 104.504 56.4431C104.503 55.7928 104.592 55.1454 104.767 54.5192L103.752 53.6677Z" fill="black"/>
<path d="M95.3054 47.8856C96.8456 51.8069 97.408 53.4995 100.094 54.8977C104.131 57.0003 108.61 54.2617 108.273 49.9619C107.974 46.0879 105.508 40.3268 101.077 40.0008C100.101 39.9248 99.1221 40.0993 98.2326 40.5078C97.3431 40.9164 96.5727 41.5454 95.9946 42.3352C95.4164 43.1251 95.0496 44.0495 94.929 45.0209C94.8084 45.9923 94.938 46.9783 95.3054 47.8856Z" fill="#7F3E3B"/>
<path d="M99.5261 39.4331C102.517 41.2729 99.9571 52.096 94.8951 51.523C89.8331 50.9501 95.1054 36.7155 99.5261 39.4331Z" fill="#263238"/>
<path d="M99.4159 39.4752C97.1608 40.9733 98.701 43.5805 106.302 42.0351C106.302 42.0298 103.158 36.9836 99.4159 39.4752Z" fill="#263238"/>
<path d="M95.852 51.6965C96.1844 52.4393 96.7964 53.0211 97.5551 53.3155C98.5696 53.694 99.1636 52.7899 98.9638 51.8069C98.7799 50.908 98.0334 49.6202 96.9822 49.6728C96.7524 49.6882 96.5302 49.7609 96.3356 49.884C96.1411 50.0072 95.9803 50.177 95.8681 50.3781C95.7558 50.5791 95.6955 50.805 95.6927 51.0352C95.6899 51.2655 95.7447 51.4928 95.852 51.6965Z" fill="#7F3E3B"/>
<path d="M111.963 85.317C111.963 85.317 121.162 115.347 121.903 128.268C122.671 141.708 102.712 157.657 102.712 157.657L97.7444 152.206C97.7444 152.206 113.961 138.434 111.737 128.457C108.662 114.706 99.3476 86.2 99.3476 86.2L111.963 85.317Z" fill="#263238"/>
<path opacity="0.2" d="M106.228 95.1466C105.387 92.5183 103.516 94.2845 102.864 97.0705C104.163 101.276 105.666 106.196 107.096 111.121C107.648 106.758 107.874 100.298 106.228 95.1466Z" fill="black"/>
<path d="M96.3987 151.943L102.701 158.445L105.393 156.958L98.7326 149.709L96.3987 151.943Z" fill="#407BFF"/>
<path d="M107.416 85.6376C107.416 85.6376 104.788 115.074 102.16 131.469C100.031 144.715 85.5703 166.351 85.5703 166.351L80.2717 163.886C80.2717 163.886 89.991 140.72 91.5048 131.716C96.3618 102.895 89.8017 94.5789 94.7691 86.5102L107.416 85.6376Z" fill="#263238"/>
<path d="M79.8984 163.943L85.8751 166.876L87.8357 164.443L80.8446 161.147L79.8984 163.943Z" fill="#407BFF"/>
<path d="M94.4378 85.5325L93.7703 87.1094C93.7177 87.2303 93.8649 87.346 94.0646 87.3302L112.094 86.0686C112.247 86.0686 112.373 85.974 112.373 85.8742L112.42 84.2972C112.42 84.1921 112.284 84.1132 112.115 84.1237L94.7059 85.3432C94.6477 85.3453 94.5913 85.3643 94.5437 85.3979C94.4961 85.4315 94.4593 85.4783 94.4378 85.5325Z" fill="white"/>
<path d="M96.9086 87.3092L96.446 87.3407C96.3514 87.3407 96.2778 87.3039 96.2778 87.2461L96.3567 85.2329C96.3567 85.175 96.4408 85.1172 96.5301 85.112L96.998 85.0804C97.0926 85.0804 97.1662 85.1172 97.1609 85.175L97.0821 87.1883C97.0821 87.2566 97.0032 87.3092 96.9086 87.3092Z" fill="#263238"/>
<path d="M110.796 86.342L110.328 86.3735C110.234 86.3735 110.16 86.3367 110.166 86.2789L110.244 84.2657C110.244 84.2078 110.323 84.1553 110.418 84.1448L110.88 84.1132C110.975 84.1132 111.049 84.15 111.049 84.2078L110.97 86.2263C110.965 86.2841 110.912 86.3367 110.796 86.342Z" fill="#263238"/>
<path d="M103.852 86.8308L103.385 86.8624C103.295 86.8624 103.222 86.8256 103.222 86.7677L103.301 84.7493C103.301 84.6914 103.379 84.6389 103.474 84.6336L103.942 84.6021C104.031 84.6021 104.105 84.6389 104.105 84.6967L104.026 86.7099C104.026 86.7835 103.947 86.8203 103.852 86.8308Z" fill="#263238"/>
<path d="M101.639 46.4137C101.387 46.4978 101.282 46.8763 101.408 47.2653L102.328 46.9709C102.202 46.582 101.892 46.3086 101.639 46.4137Z" fill="#263238"/>
<path d="M105.655 45.1417C105.398 45.2258 105.293 45.6095 105.419 45.9985L106.344 45.6989C106.181 45.3099 105.881 45.0628 105.655 45.1417Z" fill="#263238"/>
<path d="M105.524 45.1995L106.37 44.6318C106.37 44.6318 106.129 45.5149 105.524 45.1995Z" fill="#263238"/>
<path d="M104.604 46.7291C105.132 47.3783 105.748 47.9514 106.433 48.4322C106.306 48.6047 106.143 48.7472 105.955 48.8499C105.767 48.9525 105.559 49.0127 105.345 49.0262L104.604 46.7291Z" fill="#630F0F"/>
<path d="M104.667 50.661C104.683 50.6476 104.694 50.6301 104.699 50.6105C104.705 50.5909 104.705 50.5701 104.699 50.5506C104.69 50.5255 104.672 50.5048 104.649 50.493C104.625 50.4812 104.598 50.4792 104.573 50.4875C104.171 50.6267 103.741 50.6698 103.32 50.6132C102.898 50.5566 102.495 50.4019 102.144 50.1616C102.135 50.1522 102.124 50.1448 102.112 50.1397C102.099 50.1346 102.086 50.132 102.073 50.132C102.06 50.132 102.047 50.1346 102.035 50.1397C102.023 50.1448 102.012 50.1522 102.002 50.1616C101.992 50.1705 101.984 50.1814 101.979 50.1937C101.973 50.2059 101.97 50.2192 101.97 50.2326C101.97 50.246 101.973 50.2593 101.979 50.2715C101.984 50.2837 101.992 50.2947 102.002 50.3035C102.378 50.5727 102.813 50.7468 103.271 50.8109C103.729 50.875 104.195 50.8271 104.63 50.6715L104.667 50.661Z" fill="#263238"/>
<path d="M100.31 46.1772C100.336 46.155 100.356 46.1259 100.367 46.0931C100.44 45.8485 100.57 45.625 100.748 45.4419C100.925 45.2588 101.145 45.1215 101.387 45.0418C101.413 45.0356 101.437 45.0244 101.458 45.0089C101.479 44.9934 101.497 44.9738 101.511 44.9514C101.524 44.9289 101.534 44.904 101.538 44.878C101.542 44.8521 101.541 44.8256 101.534 44.8C101.528 44.7745 101.517 44.7504 101.501 44.7292C101.486 44.708 101.466 44.69 101.444 44.6763C101.421 44.6627 101.397 44.6536 101.371 44.6495C101.345 44.6455 101.318 44.6466 101.293 44.6528C100.988 44.7488 100.711 44.9162 100.484 45.1412C100.257 45.3661 100.087 45.642 99.9889 45.9459C99.9723 45.9961 99.9762 46.0509 99.9998 46.0982C100.023 46.1455 100.065 46.1814 100.115 46.1982C100.146 46.2128 100.181 46.2185 100.215 46.2148C100.25 46.2111 100.282 46.1981 100.31 46.1772Z" fill="#263238"/>
<path d="M106.607 43.5805C106.618 43.5746 106.627 43.5654 106.633 43.5542C106.65 43.5336 106.663 43.5099 106.67 43.4844C106.678 43.4589 106.68 43.4321 106.677 43.4057C106.674 43.3792 106.666 43.3536 106.653 43.3304C106.64 43.3072 106.623 43.2868 106.602 43.2704C106.356 43.0669 106.065 42.9251 105.753 42.8565C105.441 42.7879 105.118 42.7947 104.809 42.8761C104.784 42.8844 104.76 42.8977 104.74 42.9152C104.72 42.9328 104.703 42.9542 104.692 42.9782C104.68 43.0023 104.673 43.0284 104.671 43.0551C104.67 43.0818 104.674 43.1085 104.683 43.1337C104.701 43.183 104.737 43.2236 104.784 43.2471C104.831 43.2706 104.885 43.2751 104.935 43.2599C105.18 43.197 105.436 43.1938 105.682 43.2505C105.928 43.3072 106.157 43.4222 106.349 43.5858C106.386 43.6154 106.432 43.6312 106.479 43.6302C106.526 43.6292 106.571 43.6116 106.607 43.5805Z" fill="#263238"/>
<path d="M85.5496 40.3846C85.4219 40.3843 85.2967 40.3498 85.1869 40.2847L69.1966 30.4341C69.0565 30.3308 68.9602 30.1786 68.927 30.0077C68.8938 29.8368 68.9261 29.6597 69.0174 29.5115C69.1087 29.3632 69.2524 29.2548 69.42 29.2075C69.5876 29.1603 69.7668 29.1778 69.922 29.2566L85.9123 39.1072C86.0412 39.1854 86.1409 39.3038 86.196 39.4441C86.2512 39.5845 86.2587 39.739 86.2175 39.8841C86.1763 40.0291 86.0887 40.1567 85.968 40.2471C85.8473 40.3375 85.7003 40.3858 85.5496 40.3846Z" fill="#407BFF"/>
<path d="M72.8182 31.5221C73.7171 31.4853 74.6422 31.4433 74.7631 30.6338C74.884 29.8243 74.0167 29.5142 73.1861 29.2093L72.9601 29.1252C72.9601 29.0463 72.9233 28.9675 72.9023 28.8939L73.0863 28.6889C73.675 28.0371 74.29 27.3643 73.8117 26.723C73.3333 26.0817 72.5133 26.4601 71.7091 26.8334L71.462 26.949C71.3937 26.9017 71.3254 26.8649 71.2518 26.8228C71.1782 26.7808 71.2518 26.6546 71.2518 26.581C71.2097 25.6874 71.1677 24.7623 70.3634 24.6414C69.5592 24.5205 69.2438 25.3878 68.9389 26.2183C68.9126 26.2867 68.8863 26.3655 68.8548 26.4444L68.6183 26.5022L68.4185 26.3235C67.7667 25.7295 67.0939 25.1197 66.4526 25.5928C65.8113 26.0659 66.1898 26.8912 66.563 27.6954L66.6786 27.9425C66.6328 28.0084 66.5907 28.0769 66.5525 28.1475H66.3107C65.4171 28.1895 64.4867 28.2316 64.3658 29.0411C64.2449 29.8506 65.1174 30.1607 65.9427 30.4656L66.1687 30.5497C66.1687 30.6285 66.2055 30.7074 66.2266 30.781C66.1635 30.8546 66.1004 30.9282 66.0426 30.986C65.4539 31.6378 64.8441 32.3054 65.3172 32.9519C65.7903 33.5984 66.6155 33.2095 67.4198 32.8415L67.6721 32.7259L67.8771 32.852C67.8771 32.9361 67.8771 33.0202 67.8771 33.0938C67.9192 33.9874 67.9612 34.9126 68.7655 35.0335C69.5697 35.1544 69.8903 34.287 70.1952 33.4565C70.1952 33.3934 70.2478 33.3146 70.2741 33.2305C70.354 33.2162 70.433 33.1969 70.5106 33.1727L70.7156 33.3567C71.3621 33.9454 72.035 34.5604 72.6815 34.0873C73.3281 33.6142 72.9391 32.7889 72.5659 31.9847C72.5343 31.9164 72.4923 31.827 72.4555 31.7377L72.5817 31.5327L72.8182 31.5221Z" fill="#407BFF"/>
<path opacity="0.7" d="M72.8182 31.5221C73.7171 31.4853 74.6422 31.4433 74.7631 30.6338C74.884 29.8243 74.0167 29.5142 73.1861 29.2093L72.9601 29.1252C72.9601 29.0463 72.9233 28.9675 72.9023 28.8939L73.0863 28.6889C73.675 28.0371 74.29 27.3643 73.8117 26.723C73.3333 26.0817 72.5133 26.4601 71.7091 26.8334L71.462 26.949C71.3937 26.9017 71.3254 26.8649 71.2518 26.8228C71.1782 26.7808 71.2518 26.6546 71.2518 26.581C71.2097 25.6874 71.1677 24.7623 70.3634 24.6414C69.5592 24.5205 69.2438 25.3878 68.9389 26.2183C68.9126 26.2867 68.8863 26.3655 68.8548 26.4444L68.6183 26.5022L68.4185 26.3235C67.7667 25.7295 67.0939 25.1197 66.4526 25.5928C65.8113 26.0659 66.1898 26.8912 66.563 27.6954L66.6786 27.9425C66.6328 28.0084 66.5907 28.0769 66.5525 28.1475H66.3107C65.4171 28.1895 64.4867 28.2316 64.3658 29.0411C64.2449 29.8506 65.1174 30.1607 65.9427 30.4656L66.1687 30.5497C66.1687 30.6285 66.2055 30.7074 66.2266 30.781C66.1635 30.8546 66.1004 30.9282 66.0426 30.986C65.4539 31.6378 64.8441 32.3054 65.3172 32.9519C65.7903 33.5984 66.6155 33.2095 67.4198 32.8415L67.6721 32.7259L67.8771 32.852C67.8771 32.9361 67.8771 33.0202 67.8771 33.0938C67.9192 33.9874 67.9612 34.9126 68.7655 35.0335C69.5697 35.1544 69.8903 34.287 70.1952 33.4565C70.1952 33.3934 70.2478 33.3146 70.2741 33.2305C70.354 33.2162 70.433 33.1969 70.5106 33.1727L70.7156 33.3567C71.3621 33.9454 72.035 34.5604 72.6815 34.0873C73.3281 33.6142 72.9391 32.7889 72.5659 31.9847C72.5343 31.9164 72.4923 31.827 72.4555 31.7377L72.5817 31.5327L72.8182 31.5221Z" fill="white"/>
<path d="M80.7762 40.5528L80.1191 36.3476L84.4084 38.4502C84.2468 39.1581 83.8813 39.8032 83.3571 40.3057C83.1414 40.5514 82.8606 40.731 82.5472 40.824C82.2338 40.9171 81.9005 40.9196 81.5857 40.8314L80.7762 40.5528Z" fill="#7F3E3B"/>
<path d="M82.5266 34.287L84.7238 36.2162L84.4084 38.4239L80.1191 36.3423L82.5266 34.287Z" fill="#7F3E3B"/>
<path d="M83.2206 172.785C83.2652 172.753 83.3073 172.718 83.3468 172.68C83.3918 172.639 83.4249 172.586 83.4425 172.528C83.4601 172.47 83.4615 172.408 83.4466 172.348C83.3205 171.823 81.8697 171.297 81.7067 171.26C81.6887 171.253 81.6687 171.251 81.6497 171.256C81.6307 171.261 81.6138 171.271 81.6016 171.287C81.5908 171.303 81.585 171.322 81.585 171.342C81.585 171.361 81.5908 171.381 81.6016 171.397C81.8381 171.923 82.3112 172.785 82.8421 172.874C82.9751 172.894 83.1105 172.862 83.2206 172.785ZM81.8697 171.534C82.4426 171.749 83.1838 172.117 83.2521 172.396C83.257 172.422 83.2548 172.449 83.2455 172.474C83.2362 172.499 83.2204 172.521 83.1996 172.538C83.1595 172.589 83.1071 172.628 83.0473 172.653C82.9874 172.678 82.9222 172.687 82.8579 172.68C82.5688 172.627 82.2114 172.207 81.8697 171.534Z" fill="#407BFF"/>
<path d="M83.4886 171.381C83.523 171.361 83.5532 171.334 83.578 171.302C83.6293 171.24 83.6573 171.162 83.6573 171.082C83.6573 171.001 83.6293 170.923 83.578 170.861C83.5389 170.794 83.4857 170.737 83.4221 170.694C83.3585 170.65 83.2861 170.621 83.2101 170.609C82.6056 170.498 81.6331 171.245 81.5963 171.276C81.5827 171.288 81.5722 171.302 81.5657 171.319C81.5593 171.335 81.5572 171.353 81.5595 171.371C81.5625 171.387 81.5692 171.403 81.5792 171.417C81.5892 171.431 81.6023 171.442 81.6173 171.45C82.2288 171.654 82.8938 171.63 83.4886 171.381ZM81.9117 171.302C82.2717 171.009 82.7149 170.836 83.1785 170.808C83.2269 170.814 83.2731 170.832 83.3133 170.859C83.3536 170.886 83.3866 170.923 83.4098 170.966C83.4781 171.076 83.4466 171.134 83.4098 171.171C83.2206 171.397 82.3585 171.439 81.8802 171.318L81.9117 171.302Z" fill="#407BFF"/>
<path d="M97.2029 162.608C97.3098 162.937 97.5176 163.224 97.7969 163.428C97.8755 163.475 97.9635 163.503 98.0544 163.511C98.1453 163.519 98.2369 163.507 98.3225 163.476C98.3737 163.461 98.4199 163.433 98.4561 163.394C98.4922 163.355 98.517 163.307 98.5275 163.255C98.6379 162.729 97.2607 161.431 96.9821 161.152C96.965 161.141 96.9449 161.135 96.9243 161.135C96.9038 161.135 96.8837 161.141 96.8665 161.152C96.8481 161.162 96.8335 161.178 96.825 161.197C96.8164 161.216 96.8144 161.237 96.8192 161.257C96.8968 161.72 97.0254 162.173 97.2029 162.608ZM98.2963 163.002C98.3261 163.063 98.3388 163.13 98.3331 163.197C98.3331 163.223 98.3331 163.25 98.2595 163.271C98.1981 163.294 98.1322 163.304 98.0666 163.298C98.0011 163.293 97.9376 163.272 97.881 163.239C97.5604 163.05 97.266 162.419 97.0768 161.525C97.5555 161.953 97.9667 162.451 98.2963 163.002Z" fill="#407BFF"/>
<path d="M96.8402 161.294C96.8387 161.305 96.8387 161.315 96.8402 161.326C97.2713 161.762 98.5591 162.466 98.9744 162.224C99.0637 162.172 99.1584 162.056 99.0848 161.804C98.8167 160.837 96.9822 161.142 96.8928 161.157C96.8744 161.16 96.8571 161.168 96.8431 161.18C96.8291 161.192 96.819 161.208 96.814 161.226C96.8143 161.251 96.8236 161.275 96.8402 161.294ZM98.8903 161.793L98.9166 161.857C98.9166 161.962 98.9166 162.025 98.9166 162.051C98.6748 162.188 97.7023 161.736 97.1872 161.326C97.6182 161.278 98.659 161.236 98.8903 161.793Z" fill="#407BFF"/>
<path d="M101.534 46.4716L102.38 45.8986C102.38 45.8986 102.139 46.7869 101.534 46.4716Z" fill="#263238"/>
<path d="M170.252 184.17L166.178 184.176L165.08 174.745L169.153 174.74L170.252 184.17Z" fill="#FFC3BD"/>
<path d="M205.318 166.666L202.232 169.331L195.247 162.903L198.327 160.238L205.318 166.666Z" fill="#FFC3BD"/>
<path d="M201.633 169.226L205.386 165.978C205.448 165.927 205.525 165.899 205.604 165.899C205.684 165.899 205.761 165.927 205.823 165.978L208.682 168.259C208.752 168.318 208.808 168.391 208.846 168.474C208.885 168.556 208.905 168.646 208.905 168.737C208.905 168.828 208.885 168.918 208.846 169.001C208.808 169.084 208.752 169.157 208.682 169.216C207.457 170.241 206.516 170.929 205.003 172.243C204.067 173.053 201.323 175.597 200.03 176.717C198.737 177.836 197.512 176.654 197.927 176.075C199.872 173.489 201.081 171.197 201.27 169.836C201.317 169.597 201.445 169.381 201.633 169.226Z" fill="#263238"/>
<path d="M166.205 183.702H170.657C170.738 183.703 170.816 183.731 170.879 183.781C170.942 183.832 170.986 183.902 171.004 183.981L171.813 187.603C171.833 187.69 171.833 187.781 171.813 187.868C171.793 187.955 171.753 188.037 171.697 188.107C171.641 188.176 171.57 188.232 171.489 188.271C171.408 188.309 171.319 188.329 171.23 188.328C169.621 188.302 167.303 188.213 165.285 188.213C162.93 188.213 161.547 188.276 158.782 188.281C157.111 188.281 156.643 186.594 157.342 186.441C160.528 185.737 162.473 185.731 165.227 184.028C165.516 183.831 165.855 183.718 166.205 183.702Z" fill="#263238"/>
<path d="M152.963 67.077C152.143 66.7616 151.439 66.4725 150.703 66.1361C149.967 65.7997 149.258 65.4685 148.543 65.1163C147.116 64.4155 145.715 63.634 144.337 62.7719C142.951 61.9225 141.619 60.9886 140.348 59.9755C140.027 59.7127 139.701 59.4498 139.386 59.1818L138.45 58.3249C138.14 58.0411 137.846 57.7152 137.546 57.4103C137.394 57.2421 137.262 57.1212 137.089 56.9215C136.915 56.7217 136.747 56.5272 136.595 56.3275C136.02 55.5675 135.532 54.746 135.139 53.878C134.773 53.0853 134.462 52.2687 134.208 51.4337C133.725 49.857 133.373 48.243 133.157 46.6083C132.742 43.4612 132.663 40.2789 132.92 37.1151H135.98C136.19 38.5396 136.411 40.0377 136.7 41.4779C136.989 42.9182 137.294 44.3585 137.667 45.7462C138.02 47.1017 138.466 48.4312 139.002 49.7253C139.447 50.8696 140.074 51.9345 140.858 52.8792L141.115 53.1421C141.194 53.2262 141.352 53.3523 141.467 53.4574C141.72 53.673 141.951 53.899 142.219 54.104C142.745 54.5245 143.27 54.9398 143.859 55.3393C144.995 56.1277 146.193 56.8794 147.444 57.5838C148.695 58.2881 149.972 58.9557 151.271 59.5865C151.923 59.9071 152.58 60.2225 153.237 60.5169C153.894 60.8113 154.582 61.1214 155.171 61.3737L152.963 67.077Z" fill="#FFC3BD"/>
<path d="M153.615 70.5462C151.295 69.1042 149.104 67.4652 147.066 65.6472L148.69 57.3472C151.71 58.2063 154.78 58.8769 157.884 59.3552C163.009 60.0175 157.268 72.7224 153.615 70.5462Z" fill="#263238"/>
<path d="M136.085 37.8299L136.374 32.6418L132.064 34.0242C132.064 34.0242 131.06 37.7406 133.856 38.7183L136.085 37.8299Z" fill="#FFC3BD"/>
<path d="M135.854 29.8506L132.295 31.3329L132.064 34.0242L136.374 32.6418L135.854 29.8506Z" fill="#FFC3BD"/>
<path opacity="0.2" d="M165.085 174.745L165.647 179.608L169.721 179.602L169.159 174.74L165.085 174.745Z" fill="black"/>
<path opacity="0.2" d="M198.332 160.238L195.247 162.903L198.853 166.214L201.933 163.549L198.332 160.238Z" fill="black"/>
<path d="M173.548 59.187C173.557 58.8985 173.509 58.6111 173.406 58.3413C173.304 58.0715 173.149 57.8246 172.951 57.615C172.752 57.4054 172.514 57.2371 172.25 57.1199C171.987 57.0026 171.702 56.9388 171.414 56.932C159.786 56.7165 152.222 59.9755 151.702 60.1857C151.508 60.2641 151.337 60.3906 151.205 60.5534C151.074 60.7162 150.986 60.9099 150.95 61.1161C150.467 64.0282 149.095 76.2338 155.818 95.3358L177.369 92.2503C177.08 89.0701 173.064 74.4781 173.548 59.187Z" fill="#263238"/>
<path d="M156.117 58.7192C154.84 60.4275 154.262 64.3646 158.493 67.2452C163.697 63.3607 166.378 59.1818 167.172 57.0056C163.438 57.1929 159.733 57.7672 156.117 58.7192Z" fill="white"/>
<path d="M155.15 60.3171C154.871 60.3171 154.604 60.2064 154.407 60.0092C154.209 59.8121 154.099 59.5447 154.099 59.2658C154.099 58.3985 154.85 57.6521 155.486 57.1633C157.62 55.5863 161.794 54.3826 167.051 55.9017C167.309 55.9869 167.524 56.169 167.651 56.4096C167.778 56.6502 167.807 56.9307 167.731 57.192C167.656 57.4533 167.482 57.6752 167.246 57.811C167.01 57.9468 166.731 57.9859 166.467 57.9202C160.37 56.1593 156.611 58.6613 156.206 59.3815C156.178 59.6407 156.054 59.88 155.859 60.053C155.663 60.2259 155.411 60.32 155.15 60.3171Z" fill="#407BFF"/>
<path d="M163.886 47.013C163.728 50.046 163.923 55.5338 166.267 57.2053C164.89 59.0293 163.056 61.1687 159.571 61.7942C157.468 62.1674 156.748 61.3895 156.658 60.4065C156.629 59.9324 156.734 59.4594 156.96 59.042C157.187 58.6246 157.527 58.2795 157.941 58.0464C160.207 56.7322 159.755 54.6191 158.94 52.6217L163.886 47.013Z" fill="#FFC3BD"/>
<path d="M154.829 84.4339C154.711 84.4334 154.594 84.412 154.483 84.3708C154.22 84.278 154.005 84.0846 153.885 83.8333C153.764 83.582 153.749 83.2932 153.841 83.0304C153.987 82.6626 154.055 82.2685 154.041 81.873C154.026 81.4776 153.93 81.0895 153.757 80.7333L153.647 80.4337C153.467 80.0806 153.229 79.7607 152.942 79.4875C152.327 78.9942 151.902 78.3034 151.738 77.5322C151.574 76.7609 151.682 75.9568 152.044 75.2561C152.173 74.9561 152.249 74.636 152.27 74.3099C152.169 73.9355 152.008 73.5802 151.791 73.2586C151.357 72.6383 151.101 71.9113 151.05 71.156C151.109 70.3662 151.396 69.6104 151.875 68.9798C152.056 68.7407 152.198 68.4746 152.296 68.1914C152.3 67.8989 152.242 67.6089 152.128 67.3398C151.875 66.7424 151.812 66.0816 151.949 65.4475C152.162 64.7324 152.601 64.1055 153.2 63.6603C153.369 63.5324 153.516 63.3779 153.636 63.203C153.711 62.9491 153.711 62.6789 153.636 62.425C153.476 61.8162 153.561 61.169 153.873 60.622C154.241 60.0438 154.204 59.8966 154.172 59.7757C154.119 59.5914 154.096 59.3997 154.104 59.208C154.104 58.9292 154.215 58.6618 154.412 58.4647C154.609 58.2675 154.877 58.1567 155.155 58.1567C155.434 58.1567 155.702 58.2675 155.899 58.4647C156.096 58.6618 156.207 58.9292 156.207 59.208V59.2396C156.354 59.8336 156.396 60.5432 155.681 61.7049C155.69 61.8283 155.705 61.9512 155.728 62.0728C155.887 62.6509 155.863 63.2638 155.661 63.8282C155.459 64.3925 155.088 64.8808 154.598 65.2267C154.262 65.5211 154.073 65.6998 153.999 65.9574C153.988 66.2002 154.037 66.442 154.141 66.6617C154.364 67.2239 154.452 67.8307 154.398 68.4332C154.282 69.037 154.03 69.6067 153.663 70.0995C153.419 70.4069 153.249 70.7668 153.168 71.1508C153.253 71.5187 153.409 71.8668 153.626 72.1758C154.004 72.7405 154.26 73.3779 154.377 74.0471C154.407 74.6798 154.297 75.3113 154.057 75.8974C153.886 76.2711 153.805 76.6798 153.82 77.0906C153.986 77.4552 154.224 77.7824 154.519 78.0525C155.006 78.5281 155.392 79.0965 155.655 79.7241L155.749 79.9974C156.267 81.1726 156.299 82.5045 155.839 83.7032C155.77 83.9167 155.636 84.1027 155.454 84.2342C155.272 84.3656 155.054 84.4356 154.829 84.4339Z" fill="#407BFF"/>
<path d="M173.353 59.0135C173.926 59.5392 174.404 59.9807 174.888 60.4854C175.372 60.99 175.845 61.4788 176.313 61.9835C177.248 62.9927 178.131 64.0545 178.983 65.1374C180.757 67.3817 182.242 69.8399 183.404 72.4544C183.696 73.1537 183.952 73.8678 184.171 74.5938C184.281 74.9617 184.376 75.3454 184.465 75.7344L184.497 75.8763L184.544 76.1234C184.576 76.2863 184.592 76.4598 184.607 76.649C184.633 76.9996 184.622 77.3519 184.576 77.7003C184.498 78.3286 184.307 78.9376 184.013 79.4981C183.767 79.9648 183.469 80.4021 183.125 80.8017C182.555 81.4523 181.899 82.0218 181.175 82.4942C179.939 83.3032 178.608 83.9565 177.211 84.4391C176.549 84.6809 175.882 84.8859 175.209 85.0594C174.536 85.2329 173.884 85.3958 173.153 85.5167L172.207 82.6099C172.733 82.3155 173.295 82.0054 173.826 81.69C174.357 81.3746 174.878 81.0435 175.403 80.7123C176.38 80.0947 177.3 79.3911 178.152 78.6097C178.479 78.2949 178.767 77.9419 179.009 77.5584C179.193 77.2588 179.177 77.059 179.125 77.1221C179.121 77.1394 179.121 77.1574 179.125 77.1747L179.093 77.0801C179.014 76.8383 178.941 76.5912 178.836 76.3389C178.641 75.8259 178.418 75.3241 178.168 74.8356C177.64 73.7973 177.04 72.7979 176.37 71.8446C175.703 70.8564 174.967 69.8892 174.189 68.943C173.411 67.9969 172.612 67.0665 171.766 66.1466C171.35 65.6893 170.925 65.2425 170.494 64.8009C170.063 64.3594 169.611 63.8968 169.227 63.5289L173.353 59.0135Z" fill="#FFC3BD"/>
<path d="M171.997 57.0213C174.373 57.3735 178.1 63.3291 178.1 63.3291L172.05 71.4398C172.05 71.4398 168.822 68.3648 167.881 65.6577C166.105 60.4643 167.329 56.338 171.997 57.0213Z" fill="#263238"/>
<path d="M168.827 77.4375C168.645 77.4355 168.466 77.386 168.308 77.2938C168.151 77.2016 168.02 77.07 167.928 76.9119C167.567 76.205 167.41 75.4112 167.476 74.62C167.504 74.2935 167.476 73.9645 167.392 73.6476C167.182 73.3211 166.917 73.0331 166.609 72.796C166.004 72.3457 165.533 71.7386 165.248 71.0404C165.053 70.2728 165.087 69.465 165.348 68.717C165.443 68.4321 165.495 68.1343 165.5 67.8339C165.368 67.4733 165.176 67.1374 164.932 66.8404C164.391 66.2838 164.074 65.547 164.042 64.771C164.009 63.9951 164.265 63.2346 164.759 62.6353C164.901 62.4211 165.016 62.1898 165.1 61.9467C165.073 61.5477 164.977 61.1565 164.817 60.7902C164.516 60.1703 164.414 59.473 164.522 58.7928C164.718 57.8252 165.206 56.941 165.92 56.2591L165.989 56.1908C166.185 56.0045 166.446 55.9009 166.716 55.9018C166.987 55.9027 167.247 56.0078 167.442 56.1954C167.637 56.383 167.752 56.6385 167.763 56.9089C167.775 57.1792 167.681 57.4436 167.503 57.6469L167.382 57.7678C166.952 58.182 166.664 58.7208 166.557 59.3079C166.613 59.5717 166.693 59.8302 166.793 60.0806C167.069 60.7174 167.207 61.4052 167.198 62.0991C167.116 62.6747 166.902 63.2235 166.572 63.7023C166.345 64.0126 166.195 64.3732 166.136 64.7536C166.26 65.0789 166.438 65.3809 166.662 65.6472C167.086 66.1748 167.396 66.7853 167.571 67.4397C167.651 68.0495 167.592 68.6696 167.398 69.2532C167.264 69.6232 167.216 70.0184 167.256 70.4096C167.455 70.7319 167.714 71.0136 168.018 71.2401C168.552 71.6604 168.994 72.1865 169.316 72.7855C169.544 73.3762 169.637 74.0099 169.59 74.6411C169.55 75.0504 169.603 75.4632 169.742 75.85C169.885 76.0892 169.926 76.3752 169.858 76.6452C169.79 76.9152 169.618 77.1472 169.379 77.2903C169.212 77.3894 169.021 77.4403 168.827 77.4375Z" fill="#407BFF"/>
<path opacity="0.2" d="M161.868 49.2996L158.945 52.6164C159.165 53.1259 159.341 53.6535 159.471 54.1934C160.701 53.8307 162.23 52.2064 162.178 50.8713C162.17 50.333 162.065 49.8006 161.868 49.2996Z" fill="black"/>
<path d="M155.723 38.3871C154.425 40.6474 155.255 43.8644 155.255 43.8644C155.604 44.0908 156.006 44.22 156.421 44.2385C156.836 44.257 157.248 44.1641 157.615 43.9695L157.248 37.9771L155.723 38.3871Z" fill="#263238"/>
<path d="M165.958 44.1272C164.964 48.0485 164.58 50.3929 162.194 52.0487C158.604 54.5403 154.052 51.7964 153.857 47.6596C153.678 43.9327 155.334 38.1506 159.518 37.3095C160.439 37.1189 161.393 37.1669 162.289 37.449C163.186 37.7311 163.995 38.2379 164.641 38.9212C165.286 39.6046 165.746 40.4417 165.976 41.3529C166.207 42.2641 166.2 43.2192 165.958 44.1272Z" fill="#FFC3BD"/>
<path d="M154.509 48.6898H154.367L145.457 46.8027C144.973 46.7003 144.549 46.4096 144.279 45.9945C144.008 45.5795 143.914 45.0742 144.017 44.5898C144.119 44.1053 144.41 43.6814 144.825 43.4113C145.24 43.1412 145.745 43.047 146.23 43.1495C146.318 43.1682 146.401 43.2042 146.476 43.2553C146.55 43.3064 146.613 43.3718 146.662 43.4475C146.711 43.5232 146.744 43.6079 146.76 43.6965C146.776 43.7852 146.775 43.8762 146.755 43.9642C146.716 44.1416 146.609 44.2963 146.456 44.3948C146.304 44.4932 146.118 44.5274 145.941 44.4899C145.878 44.4747 145.813 44.4729 145.749 44.4847C145.686 44.4965 145.626 44.5215 145.573 44.5582C145.519 44.5927 145.473 44.6374 145.437 44.6897C145.401 44.7421 145.376 44.801 145.362 44.8631C145.339 44.99 145.364 45.1209 145.431 45.2311C145.503 45.3358 145.612 45.4105 145.736 45.4413L154.645 47.3284C154.811 47.3644 154.957 47.4603 155.057 47.5976C155.156 47.7349 155.201 47.9041 155.184 48.0726C155.166 48.2412 155.087 48.3974 154.962 48.5112C154.836 48.6251 154.673 48.6887 154.503 48.6898H154.509Z" fill="#407BFF"/>
<path d="M154.472 48.8475L153.395 48.6162L153.736 47.0393L154.787 47.2653C155 47.3107 155.186 47.4386 155.304 47.621C155.422 47.8033 155.463 48.0252 155.418 48.2378C155.366 48.4396 155.24 48.6144 155.064 48.7274C154.889 48.8403 154.678 48.8832 154.472 48.8475Z" fill="white"/>
<path d="M163.524 41.972C163.524 40.4792 162.399 39.3911 158.646 39.6802C155.581 39.9115 154.088 38.4817 154.966 36.4895C157.447 37.7826 157.037 36.09 161.768 35.885C166.499 35.68 167.871 37.462 168.37 40.2321C171.266 44.5267 166.268 46.3086 166.268 46.3086L164.312 48.017C163.907 48.1091 163.485 48.0908 163.089 47.9642C162.693 47.8375 162.339 47.6071 162.062 47.2968C162.062 47.2968 161.679 43.8118 163.524 41.972Z" fill="#263238"/>
<path d="M158.498 35.1439L158.378 35.2069C158.265 35.2668 158.17 35.3553 158.103 35.4635C158.036 35.5716 157.998 35.6956 157.994 35.8229C157.989 35.9503 158.019 36.0765 158.079 36.1889C158.139 36.3013 158.227 36.396 158.336 36.4632L169.311 43.2494C169.414 43.3126 169.532 43.3491 169.653 43.3554C169.774 43.3616 169.894 43.3376 170.003 43.2853C170.113 43.233 170.207 43.1543 170.278 43.0562C170.349 42.9581 170.394 42.8438 170.41 42.7237C170.461 42.3847 170.412 42.0381 170.268 41.727C170.124 41.4158 169.892 41.1537 169.6 40.9733L160.244 35.1912C159.982 35.0318 159.683 34.9435 159.377 34.9352C159.071 34.9269 158.768 34.9989 158.498 35.1439Z" fill="#407BFF"/>
<path d="M160.475 35.8693L163.282 31.7587C163.362 31.6415 163.484 31.5594 163.623 31.5291C163.761 31.4989 163.906 31.5227 164.028 31.5957L171.776 36.2372C171.844 36.2768 171.903 36.3305 171.948 36.3946C171.994 36.4587 172.025 36.5317 172.04 36.6089C172.055 36.686 172.053 36.7654 172.035 36.8418C172.016 36.9182 171.982 36.9899 171.934 37.052L168.575 41.4884L160.475 35.8693Z" fill="#407BFF"/>
<path d="M160.475 35.8693L161.594 33.8665L170.247 39.5856L168.575 41.4884L160.475 35.8693Z" fill="#407BFF"/>
<path opacity="0.6" d="M160.475 35.8693L161.594 33.8665L170.247 39.5856L168.575 41.4884L160.475 35.8693Z" fill="white"/>
<path d="M166.457 48.9369C165.688 49.4615 164.745 49.6652 163.829 49.5046C162.635 49.2733 162.635 48.0643 163.461 47.2075C164.202 46.4348 165.721 45.6306 166.678 46.2981C167.634 46.9657 167.408 48.2798 166.457 48.9369Z" fill="#FFC3BD"/>
<path d="M164.118 178.672H171.014C171.014 178.672 169.931 154.145 168.444 141.54C167.992 137.703 168.48 132.447 168.528 126.575C168.591 119.179 168.932 111.121 169.269 104.797C169.626 98.1375 169.926 93.3383 169.926 93.3383L155.818 95.3516C155.818 95.3516 154.419 130.27 156.611 142.507C158.893 155.218 164.118 178.672 164.118 178.672Z" fill="#407BFF"/>
<path opacity="0.2" d="M168.528 126.559C168.591 119.163 168.933 111.105 169.269 104.782L167.167 101.969C164.57 106.832 166.373 119.778 168.528 126.559Z" fill="black"/>
<path d="M162.541 94.3739C162.541 94.3739 171.303 128.977 175.466 140.168C180.024 152.416 196.808 166.735 196.808 166.735L201.05 162.067C201.05 162.067 192.172 148.227 185.627 134.912C182.5 117.623 177.39 92.2503 177.39 92.2503L162.541 94.3739Z" fill="#407BFF"/>
<path d="M196.24 167.439L202.889 161.694L201.17 159.712L193.627 166.004L196.24 167.439Z" fill="#263238"/>
<path d="M163.25 178.83L171.472 178.819L171.466 176.165L162.283 176.039L163.25 178.83Z" fill="#263238"/>
<path d="M159.902 43.3598C159.639 43.2809 159.329 43.5332 159.203 43.9275L160.139 44.2271C160.265 43.8328 160.16 43.4439 159.902 43.3598Z" fill="#263238"/>
<path d="M155.802 42.587C155.534 42.587 155.276 42.8919 155.276 43.3072L156.254 43.3703C156.27 42.955 156.075 42.6291 155.802 42.587Z" fill="#263238"/>
<path d="M157.216 43.7855C156.643 44.6995 155.948 45.5307 155.15 46.2561C155.342 46.4551 155.575 46.61 155.833 46.7098C156.091 46.8097 156.367 46.8521 156.643 46.8343L157.216 43.7855Z" fill="#ED847E"/>
<path d="M161.237 42.9392C161.27 42.947 161.304 42.947 161.337 42.9392C161.386 42.9235 161.426 42.8894 161.45 42.8441C161.473 42.7989 161.478 42.7462 161.463 42.6974C161.381 42.4024 161.23 42.1313 161.021 41.9071C160.813 41.683 160.553 41.5123 160.265 41.4096C160.241 41.4016 160.215 41.3987 160.19 41.4011C160.164 41.4035 160.14 41.4111 160.118 41.4235C160.095 41.4358 160.076 41.4526 160.061 41.4729C160.045 41.4931 160.034 41.5163 160.028 41.541C160.021 41.5652 160.019 41.5905 160.021 41.6156C160.024 41.6406 160.032 41.6649 160.044 41.6869C160.056 41.709 160.073 41.7283 160.093 41.7439C160.113 41.7594 160.135 41.7709 160.16 41.7775C160.388 41.8655 160.592 42.0068 160.755 42.1896C160.918 42.3725 161.034 42.5917 161.095 42.8288C161.109 42.8568 161.129 42.8813 161.153 42.9004C161.178 42.9195 161.207 42.9328 161.237 42.9392Z" fill="#263238"/>
<path d="M154.588 42.0351C154.619 42.0404 154.651 42.0379 154.682 42.0279C154.712 42.0178 154.739 42.0004 154.761 41.9773C154.92 41.7948 155.119 41.6521 155.342 41.5608C155.566 41.4695 155.808 41.4321 156.049 41.4516C156.1 41.4592 156.152 41.4463 156.193 41.4157C156.234 41.3852 156.262 41.3395 156.27 41.2887C156.277 41.2392 156.265 41.1888 156.235 41.1484C156.206 41.108 156.161 41.0809 156.112 41.0732C155.807 41.0431 155.5 41.0865 155.215 41.2C154.931 41.3134 154.678 41.4934 154.477 41.725C154.459 41.7426 154.444 41.7639 154.434 41.7874C154.424 41.8108 154.419 41.8361 154.419 41.8616C154.419 41.8872 154.424 41.9125 154.434 41.936C154.444 41.9594 154.459 41.9807 154.477 41.9983C154.51 42.0205 154.548 42.0332 154.588 42.0351Z" fill="#263238"/>
<path d="M201.055 170.666C201.322 170.422 201.562 170.149 201.77 169.852C201.78 169.836 201.786 169.818 201.786 169.799C201.786 169.78 201.78 169.762 201.77 169.747C201.762 169.729 201.748 169.715 201.731 169.706C201.714 169.698 201.694 169.695 201.675 169.699C201.507 169.699 200.009 169.946 199.814 170.425C199.793 170.477 199.785 170.534 199.793 170.591C199.8 170.647 199.822 170.7 199.856 170.745C199.906 170.826 199.976 170.893 200.058 170.94C200.141 170.987 200.234 171.012 200.329 171.013C200.604 170.985 200.861 170.863 201.055 170.666ZM201.475 169.931C201.039 170.493 200.619 170.819 200.335 170.819C200.27 170.817 200.207 170.799 200.152 170.766C200.097 170.733 200.051 170.686 200.019 170.63C200.007 170.611 200.001 170.589 200.001 170.567C200.001 170.544 200.007 170.522 200.019 170.503C200.093 170.256 200.876 170.036 201.475 169.931Z" fill="#407BFF"/>
<path d="M201.754 169.873C201.768 169.86 201.779 169.843 201.786 169.825C201.794 169.81 201.798 169.793 201.798 169.775C201.798 169.758 201.794 169.741 201.786 169.726C201.749 169.689 200.945 168.832 200.346 168.837C200.272 168.837 200.2 168.853 200.133 168.883C200.066 168.913 200.006 168.956 199.957 169.011C199.901 169.059 199.863 169.125 199.85 169.198C199.837 169.27 199.848 169.345 199.883 169.41C200.098 169.82 201.271 169.988 201.733 169.894L201.754 169.873ZM200.104 169.116C200.165 169.063 200.244 169.035 200.324 169.037C200.708 169.037 201.234 169.484 201.486 169.72C200.961 169.747 200.156 169.557 200.025 169.316C200.025 169.289 199.988 169.237 200.072 169.147L200.104 169.116Z" fill="#407BFF"/>
<path d="M165.805 184.27C165.822 184.264 165.837 184.254 165.848 184.24C165.859 184.226 165.866 184.209 165.868 184.191C165.873 184.172 165.87 184.151 165.862 184.133C165.853 184.115 165.839 184.1 165.821 184.091C165.632 183.997 163.997 183.166 163.503 183.445C163.455 183.47 163.415 183.507 163.387 183.552C163.358 183.597 163.342 183.649 163.34 183.702C163.329 183.79 163.34 183.878 163.372 183.96C163.404 184.042 163.456 184.114 163.524 184.17C163.971 184.565 165.137 184.402 165.795 184.27H165.805ZM163.629 183.597C163.939 183.492 164.827 183.829 165.474 184.123C164.575 184.275 163.897 184.239 163.65 184.013C163.606 183.975 163.572 183.927 163.552 183.873C163.532 183.818 163.526 183.76 163.534 183.702C163.534 183.682 163.54 183.661 163.551 183.643C163.562 183.626 163.578 183.612 163.597 183.603L163.629 183.597Z" fill="#407BFF"/>
<path d="M165.805 184.27H165.831C165.845 184.26 165.855 184.246 165.863 184.23C165.87 184.215 165.874 184.198 165.873 184.181C165.873 184.139 165.752 183.04 165.237 182.604C165.165 182.543 165.081 182.497 164.991 182.469C164.901 182.441 164.806 182.431 164.711 182.441C164.443 182.441 164.37 182.604 164.354 182.709C164.28 183.172 165.253 184.049 165.747 184.286C165.767 184.286 165.787 184.281 165.805 184.27ZM164.622 182.646H164.722C164.792 182.638 164.863 182.645 164.93 182.667C164.997 182.689 165.059 182.725 165.111 182.772C165.411 183.125 165.595 183.562 165.637 184.023C165.137 183.724 164.47 183.035 164.517 182.756C164.528 182.72 164.528 182.672 164.622 182.646Z" fill="#407BFF"/>
<path d="M172.701 82.3365L168.78 83.5771L171.824 86.6048C171.824 86.6048 175.377 85.0646 174.263 83.4982L172.701 82.3365Z" fill="#FFC3BD"/>
<path d="M167.166 87.0358L169.957 88.7284L171.824 86.6048L168.78 83.5771L167.166 87.0358Z" fill="#FFC3BD"/>
</svg>
